# xmcd
#
# Track frame offsets: 
#        150
#        22703
#        42460
#        63137
#        81072
#        99281
#        123251
#        139236
#        158541
#        179102
#        195720
#        217702
#        234868
#        260755
#        279078
#        299203
#        314230
#
# Disc length: 4564 seconds
#
# Revision: 0
# Processed by: cddbd v1.5.2PL0 Copyright (c) Steve Scherf et al.
# Submitted via: ExactAudioCopy v0.99pb5
#
DISCID=ef11d211
DTITLE=Eric Roberson - Music Fan First
DYEAR=2009
DGENRE=Soul
TTITLE0=The Newness
TTITLE1=The Hunger Ft. W. Ellingston Felton
TTITLE2=A Tale Of Two Ft. Ben O'Neill And Michelle Thompson
TTITLE3=Borrow You
TTITLE4=Dealing Ft. Lalah Hathaway
TTITLE5=Still
TTITLE6=How Could She Do It
TTITLE7=Further Ft. T3 Of Slum Village
TTITLE8=The Power That Kisses Hold
TTITLE9=Howard Girls Ft. Brandon Hines, Geno Young And Aaron Abernathy
TTITLE10=Weekend Getaway
TTITLE11=She
TTITLE12=Wanna Believe It Again Ft. Wayna
TTITLE13=Bad For Me
TTITLE14=Breakitdown
TTITLE15=Pave A New Road
TTITLE16=Celebrate Ft. Sy Smith (Bonus)
EXTD=
EXTT0=
EXTT1=
EXTT2=
EXTT3=
EXTT4=
EXTT5=
EXTT6=
EXTT7=
EXTT8=
EXTT9=
EXTT10=
EXTT11=
EXTT12=
EXTT13=
EXTT14=
EXTT15=
EXTT16=
PLAYORDER=
